%TF.GenerationSoftware,KiCad,Pcbnew,7.0.7*%
%TF.CreationDate,2023-12-04T17:46:37+09:00*%
%TF.ProjectId,AltairMD_V6,416c7461-6972-44d4-945f-56362e6b6963,rev?*%
%TF.SameCoordinates,Original*%
%TF.FileFunction,Paste,Top*%
%TF.FilePolarity,Positive*%
%FSLAX46Y46*%
G04 Gerber Fmt 4.6, Leading zero omitted, Abs format (unit mm)*
G04 Created by KiCad (PCBNEW 7.0.7) date 2023-12-04 17:46:37*
%MOMM*%
%LPD*%
G01*
G04 APERTURE LIST*
G04 Aperture macros list*
%AMRoundRect*
0 Rectangle with rounded corners*
0 $1 Rounding radius*
0 $2 $3 $4 $5 $6 $7 $8 $9 X,Y pos of 4 corners*
0 Add a 4 corners polygon primitive as box body*
4,1,4,$2,$3,$4,$5,$6,$7,$8,$9,$2,$3,0*
0 Add four circle primitives for the rounded corners*
1,1,$1+$1,$2,$3*
1,1,$1+$1,$4,$5*
1,1,$1+$1,$6,$7*
1,1,$1+$1,$8,$9*
0 Add four rect primitives between the rounded corners*
20,1,$1+$1,$2,$3,$4,$5,0*
20,1,$1+$1,$4,$5,$6,$7,0*
20,1,$1+$1,$6,$7,$8,$9,0*
20,1,$1+$1,$8,$9,$2,$3,0*%
G04 Aperture macros list end*
%ADD10RoundRect,0.225000X-0.225000X-0.250000X0.225000X-0.250000X0.225000X0.250000X-0.225000X0.250000X0*%
%ADD11RoundRect,0.225000X0.225000X0.250000X-0.225000X0.250000X-0.225000X-0.250000X0.225000X-0.250000X0*%
%ADD12R,4.600000X0.800000*%
%ADD13R,9.400000X10.800000*%
%ADD14RoundRect,0.225000X-0.250000X0.225000X-0.250000X-0.225000X0.250000X-0.225000X0.250000X0.225000X0*%
%ADD15RoundRect,0.250000X1.100000X-0.325000X1.100000X0.325000X-1.100000X0.325000X-1.100000X-0.325000X0*%
%ADD16R,2.150000X4.300000*%
%ADD17R,1.900000X0.650000*%
G04 APERTURE END LIST*
D10*
%TO.C,R8*%
X146532000Y-95397000D03*
X148082000Y-95397000D03*
%TD*%
D11*
%TO.C,R21*%
X154432000Y-74422000D03*
X152882000Y-74422000D03*
%TD*%
D12*
%TO.C,IC4*%
X161538000Y-74886000D03*
X161538000Y-76156000D03*
X161538000Y-77426000D03*
X161538000Y-78696000D03*
X161538000Y-79966000D03*
X161538000Y-81236000D03*
X161538000Y-82506000D03*
D13*
X170688000Y-78696000D03*
%TD*%
D10*
%TO.C,R18*%
X152628000Y-59456000D03*
X154178000Y-59456000D03*
%TD*%
D11*
%TO.C,C4*%
X154432000Y-118130000D03*
X152882000Y-118130000D03*
%TD*%
%TO.C,C15*%
X154432000Y-64536000D03*
X152882000Y-64536000D03*
%TD*%
D10*
%TO.C,R15*%
X146532000Y-118638000D03*
X148082000Y-118638000D03*
%TD*%
D11*
%TO.C,C22*%
X148082000Y-83078000D03*
X146532000Y-83078000D03*
%TD*%
%TO.C,C11*%
X148082000Y-100604000D03*
X146532000Y-100604000D03*
%TD*%
D14*
%TO.C,R6*%
X113792000Y-71120000D03*
X113792000Y-72670000D03*
%TD*%
D15*
%TO.C,C2*%
X131647000Y-83214000D03*
X131647000Y-80264000D03*
%TD*%
D11*
%TO.C,R25*%
X116586000Y-88392000D03*
X115036000Y-88392000D03*
%TD*%
D10*
%TO.C,R33*%
X135623000Y-53594000D03*
X137173000Y-53594000D03*
%TD*%
D11*
%TO.C,C21*%
X148082000Y-79522000D03*
X146532000Y-79522000D03*
%TD*%
D15*
%TO.C,C7*%
X178308000Y-91850000D03*
X178308000Y-88900000D03*
%TD*%
D10*
%TO.C,R12*%
X152908000Y-91841000D03*
X154458000Y-91841000D03*
%TD*%
D11*
%TO.C,R27*%
X116586000Y-83312000D03*
X115036000Y-83312000D03*
%TD*%
D12*
%TO.C,IC1*%
X161538000Y-92476000D03*
X161538000Y-93746000D03*
X161538000Y-95016000D03*
X161538000Y-96286000D03*
X161538000Y-97556000D03*
X161538000Y-98826000D03*
X161538000Y-100096000D03*
D13*
X170688000Y-96286000D03*
%TD*%
D11*
%TO.C,C13*%
X148078000Y-65044000D03*
X146528000Y-65044000D03*
%TD*%
D16*
%TO.C,C1*%
X170688000Y-140988000D03*
X170688000Y-132588000D03*
%TD*%
D11*
%TO.C,C9*%
X148082000Y-97048000D03*
X146532000Y-97048000D03*
%TD*%
D15*
%TO.C,C8*%
X178308000Y-109884000D03*
X178308000Y-106934000D03*
%TD*%
D11*
%TO.C,R28*%
X116586000Y-80772000D03*
X115036000Y-80772000D03*
%TD*%
D15*
%TO.C,C19*%
X178308000Y-74061000D03*
X178308000Y-71111000D03*
%TD*%
D11*
%TO.C,C20*%
X154432000Y-82570000D03*
X152882000Y-82570000D03*
%TD*%
D10*
%TO.C,R29*%
X135128000Y-87122000D03*
X136678000Y-87122000D03*
%TD*%
%TO.C,R31*%
X123926000Y-53594000D03*
X125476000Y-53594000D03*
%TD*%
D15*
%TO.C,C17*%
X178308000Y-56593000D03*
X178308000Y-53643000D03*
%TD*%
D11*
%TO.C,R2*%
X116586000Y-98552000D03*
X115036000Y-98552000D03*
%TD*%
%TO.C,C3*%
X154458000Y-100096000D03*
X152908000Y-100096000D03*
%TD*%
%TO.C,R13*%
X154432000Y-109621000D03*
X152882000Y-109621000D03*
%TD*%
D10*
%TO.C,R23*%
X146532000Y-81300000D03*
X148082000Y-81300000D03*
%TD*%
D15*
%TO.C,C6*%
X178308000Y-121568000D03*
X178308000Y-118618000D03*
%TD*%
D11*
%TO.C,R24*%
X116586000Y-90932000D03*
X115036000Y-90932000D03*
%TD*%
D15*
%TO.C,C5*%
X178308000Y-103886000D03*
X178308000Y-100936000D03*
%TD*%
D11*
%TO.C,C12*%
X148082000Y-116860000D03*
X146532000Y-116860000D03*
%TD*%
%TO.C,R26*%
X116586000Y-85852000D03*
X115036000Y-85852000D03*
%TD*%
%TO.C,R4*%
X116586000Y-93472000D03*
X115036000Y-93472000D03*
%TD*%
%TO.C,C14*%
X148082000Y-61488000D03*
X146532000Y-61488000D03*
%TD*%
D10*
%TO.C,R9*%
X146532000Y-115082000D03*
X148082000Y-115082000D03*
%TD*%
D12*
%TO.C,IC2*%
X161538000Y-110446000D03*
X161538000Y-111716000D03*
X161538000Y-112986000D03*
X161538000Y-114256000D03*
X161538000Y-115526000D03*
X161538000Y-116796000D03*
X161538000Y-118066000D03*
D13*
X170688000Y-114256000D03*
%TD*%
D11*
%TO.C,C10*%
X148069000Y-113304000D03*
X146519000Y-113304000D03*
%TD*%
D10*
%TO.C,R16*%
X146528000Y-63266000D03*
X148078000Y-63266000D03*
%TD*%
%TO.C,R14*%
X146532000Y-98826000D03*
X148082000Y-98826000D03*
%TD*%
%TO.C,R32*%
X129768000Y-53594000D03*
X131318000Y-53594000D03*
%TD*%
D12*
%TO.C,IC3*%
X161538000Y-56916000D03*
X161538000Y-58186000D03*
X161538000Y-59456000D03*
X161538000Y-60726000D03*
X161538000Y-61996000D03*
X161538000Y-63266000D03*
X161538000Y-64536000D03*
D13*
X170688000Y-60726000D03*
%TD*%
D10*
%TO.C,R17*%
X146532000Y-59710000D03*
X148082000Y-59710000D03*
%TD*%
D15*
%TO.C,C18*%
X178308000Y-86106000D03*
X178308000Y-83156000D03*
%TD*%
D17*
%TO.C,IC5*%
X122630000Y-85852000D03*
X122630000Y-87122000D03*
X122630000Y-88392000D03*
X122630000Y-89662000D03*
X122630000Y-90932000D03*
X122630000Y-92202000D03*
X122630000Y-93472000D03*
X122630000Y-94742000D03*
X122630000Y-96012000D03*
X122630000Y-97282000D03*
X132080000Y-97282000D03*
X132080000Y-96012000D03*
X132080000Y-94742000D03*
X132080000Y-93472000D03*
X132080000Y-92202000D03*
X132080000Y-90932000D03*
X132080000Y-89662000D03*
X132080000Y-88392000D03*
X132080000Y-87122000D03*
X132080000Y-85852000D03*
%TD*%
D11*
%TO.C,R1*%
X116599000Y-101092000D03*
X115049000Y-101092000D03*
%TD*%
%TO.C,R20*%
X154432000Y-77470000D03*
X152882000Y-77470000D03*
%TD*%
D10*
%TO.C,R10*%
X152908000Y-95016000D03*
X154458000Y-95016000D03*
%TD*%
D15*
%TO.C,C16*%
X178308000Y-68756000D03*
X178308000Y-65806000D03*
%TD*%
D11*
%TO.C,R11*%
X154458000Y-113030000D03*
X152908000Y-113030000D03*
%TD*%
D14*
%TO.C,R5*%
X113792000Y-64503000D03*
X113792000Y-66053000D03*
%TD*%
D10*
%TO.C,R19*%
X152628000Y-56281000D03*
X154178000Y-56281000D03*
%TD*%
%TO.C,R22*%
X146532000Y-77744000D03*
X148082000Y-77744000D03*
%TD*%
%TO.C,R30*%
X118084000Y-53594000D03*
X119634000Y-53594000D03*
%TD*%
D11*
%TO.C,R3*%
X116586000Y-96012000D03*
X115036000Y-96012000D03*
%TD*%
M02*
