M48
; DRILL file {KiCad 7.0.7} date Mon Dec  4 17:46:45 2023
; FORMAT={-:-/ absolute / metric / decimal}
; #@! TF.CreationDate,2023-12-04T17:46:45+09:00
; #@! TF.GenerationSoftware,Kicad,Pcbnew,7.0.7
; #@! TF.FileFunction,Plated,1,2,PTH
FMAT,2
METRIC
; #@! TA.AperFunction,Plated,PTH,ViaDrill
T1C0.400
; #@! TA.AperFunction,Plated,PTH,ComponentDrill
T2C0.900
; #@! TA.AperFunction,Plated,PTH,ComponentDrill
T3C1.000
; #@! TA.AperFunction,Plated,PTH,ComponentDrill
T4C1.800
; #@! TA.AperFunction,Plated,PTH,ComponentDrill
T5C2.700
%
G90
G05
T1
X113.03Y-102.108
X113.284Y-80.772
X113.284Y-83.312
X113.284Y-85.852
X113.284Y-88.392
X113.284Y-90.932
X113.284Y-93.472
X113.284Y-96.012
X113.284Y-98.552
X115.57Y-106.172
X120.65Y-85.852
X120.65Y-88.392
X120.65Y-89.662
X120.65Y-90.932
X120.65Y-93.472
X120.65Y-94.742
X120.65Y-101.6
X120.656Y-97.034
X124.714Y-99.822
X127.0Y-79.756
X129.794Y-90.932
X130.81Y-83.312
X131.064Y-75.438
X132.588Y-83.312
X133.858Y-87.122
X133.858Y-90.932
X133.858Y-93.472
X133.858Y-94.742
X133.858Y-96.012
X133.858Y-99.06
X133.858Y-100.33
X134.62Y-119.634
X138.176Y-88.392
X139.446Y-119.634
X139.446Y-142.24
X140.462Y-96.012
X140.462Y-100.584
X140.97Y-80.264
X140.97Y-105.41
X140.97Y-107.95
X140.97Y-110.49
X140.97Y-113.03
X140.97Y-115.57
X140.97Y-118.11
X140.97Y-120.65
X140.97Y-123.19
X142.24Y-137.16
X142.24Y-142.24
X142.24Y-147.32
X143.002Y-98.806
X143.002Y-100.584
X143.51Y-109.22
X143.51Y-111.76
X143.51Y-114.3
X143.51Y-116.84
X143.51Y-119.38
X143.51Y-121.92
X144.018Y-61.976
X144.018Y-63.5
X144.018Y-65.024
X144.018Y-69.596
X144.018Y-71.374
X144.018Y-73.152
X144.018Y-78.74
X144.018Y-80.518
X144.018Y-82.042
X144.018Y-83.82
X144.018Y-85.344
X144.018Y-86.868
X144.018Y-91.186
X144.018Y-92.964
X144.78Y-95.504
X144.78Y-97.028
X144.78Y-98.806
X144.78Y-100.584
X144.78Y-134.62
X144.78Y-139.7
X144.78Y-144.78
X145.288Y-61.976
X145.288Y-63.5
X145.288Y-65.024
X145.288Y-66.548
X145.542Y-71.374
X145.542Y-73.152
X145.542Y-75.438
X145.542Y-85.344
X145.542Y-86.868
X145.542Y-91.186
X146.05Y-110.49
X146.558Y-56.281
X146.558Y-58.166
X147.32Y-105.41
X147.32Y-137.16
X147.32Y-142.24
X147.32Y-147.32
X148.082Y-82.042
X148.082Y-99.695
X148.59Y-64.008
X148.844Y-105.41
X149.86Y-139.7
X149.86Y-144.78
X150.368Y-65.278
X150.368Y-66.802
X150.368Y-68.072
X150.368Y-69.596
X150.368Y-71.12
X150.368Y-72.644
X150.368Y-84.328
X150.368Y-85.852
X150.368Y-87.376
X150.368Y-101.092
X150.368Y-102.362
X150.368Y-103.886
X150.368Y-105.41
X150.368Y-106.934
X150.622Y-53.086
X150.622Y-54.61
X151.13Y-118.11
X151.13Y-119.38
X151.638Y-53.086
X151.638Y-54.61
X151.892Y-65.278
X151.892Y-66.802
X151.892Y-68.072
X151.892Y-69.596
X151.892Y-71.12
X151.892Y-72.644
X151.892Y-84.328
X151.892Y-85.852
X151.892Y-87.376
X151.892Y-101.092
X151.892Y-102.362
X151.892Y-103.886
X151.892Y-105.41
X151.892Y-106.934
X152.4Y-137.16
X152.4Y-142.24
X152.4Y-147.32
X154.432Y-83.82
X154.432Y-85.09
X154.432Y-86.36
X154.432Y-101.6
X154.432Y-102.87
X154.432Y-104.14
X154.432Y-119.634
X154.432Y-120.904
X154.432Y-122.174
X154.686Y-65.532
X154.686Y-66.802
X154.686Y-68.072
X154.686Y-69.342
X154.94Y-139.7
X154.94Y-144.78
X155.702Y-83.82
X155.702Y-85.09
X155.702Y-86.36
X155.702Y-101.6
X155.702Y-102.87
X155.702Y-104.14
X155.702Y-119.634
X155.702Y-120.904
X155.702Y-122.174
X156.21Y-65.532
X156.21Y-66.802
X156.21Y-68.072
X156.21Y-69.342
X156.972Y-83.82
X156.972Y-85.09
X156.972Y-86.36
X156.972Y-101.6
X156.972Y-102.87
X156.972Y-104.14
X156.972Y-119.634
X156.972Y-120.904
X156.972Y-122.174
X157.48Y-137.16
X157.48Y-142.24
X157.48Y-147.32
X157.988Y-65.532
X157.988Y-66.802
X157.988Y-68.072
X157.988Y-69.342
X158.242Y-83.82
X158.242Y-85.09
X158.242Y-86.36
X158.242Y-101.6
X158.242Y-102.87
X158.242Y-104.14
X158.242Y-119.634
X158.242Y-120.904
X158.242Y-122.174
X160.02Y-139.7
X160.02Y-144.78
X162.56Y-137.16
X162.56Y-142.24
X162.56Y-147.32
X165.1Y-139.7
X165.1Y-144.78
X166.878Y-55.372
X166.878Y-56.642
X166.878Y-57.912
X166.878Y-59.182
X166.878Y-60.452
X166.878Y-61.722
X166.878Y-62.992
X166.878Y-64.262
X166.878Y-65.532
X166.878Y-73.66
X166.878Y-74.93
X166.878Y-76.2
X166.878Y-77.47
X166.878Y-78.74
X166.878Y-80.01
X166.878Y-81.28
X166.878Y-82.55
X166.878Y-83.82
X166.878Y-91.186
X166.878Y-92.456
X166.878Y-93.726
X166.878Y-94.996
X166.878Y-96.266
X166.878Y-97.536
X166.878Y-98.806
X166.878Y-100.076
X166.878Y-101.346
X166.878Y-109.22
X166.878Y-110.49
X166.878Y-111.76
X166.878Y-113.03
X166.878Y-114.3
X166.878Y-115.57
X166.878Y-116.84
X166.878Y-118.11
X166.878Y-119.38
X167.64Y-137.16
X167.64Y-142.24
X167.64Y-147.32
X168.148Y-55.372
X168.148Y-56.642
X168.148Y-57.912
X168.148Y-59.182
X168.148Y-60.452
X168.148Y-61.722
X168.148Y-62.992
X168.148Y-64.262
X168.148Y-65.532
X168.148Y-73.66
X168.148Y-74.93
X168.148Y-76.2
X168.148Y-77.47
X168.148Y-78.74
X168.148Y-80.01
X168.148Y-81.28
X168.148Y-82.55
X168.148Y-83.82
X168.148Y-91.186
X168.148Y-92.456
X168.148Y-93.726
X168.148Y-94.996
X168.148Y-96.266
X168.148Y-97.536
X168.148Y-98.806
X168.148Y-100.076
X168.148Y-101.346
X168.148Y-109.22
X168.148Y-110.49
X168.148Y-111.76
X168.148Y-113.03
X168.148Y-114.3
X168.148Y-115.57
X168.148Y-116.84
X168.148Y-118.11
X168.148Y-119.38
X169.418Y-55.372
X169.418Y-56.642
X169.418Y-57.912
X169.418Y-59.182
X169.418Y-60.452
X169.418Y-61.722
X169.418Y-62.992
X169.418Y-64.262
X169.418Y-65.532
X169.418Y-73.66
X169.418Y-74.93
X169.418Y-76.2
X169.418Y-77.47
X169.418Y-78.74
X169.418Y-80.01
X169.418Y-81.28
X169.418Y-82.55
X169.418Y-83.82
X169.418Y-91.186
X169.418Y-92.456
X169.418Y-93.726
X169.418Y-94.996
X169.418Y-96.266
X169.418Y-97.536
X169.418Y-98.806
X169.418Y-100.076
X169.418Y-101.346
X169.418Y-109.22
X169.418Y-110.49
X169.418Y-111.76
X169.418Y-113.03
X169.418Y-114.3
X169.418Y-115.57
X169.418Y-116.84
X169.418Y-118.11
X169.418Y-119.38
X170.18Y-144.78
X170.688Y-55.372
X170.688Y-56.642
X170.688Y-57.912
X170.688Y-59.182
X170.688Y-60.452
X170.688Y-61.722
X170.688Y-62.992
X170.688Y-64.262
X170.688Y-65.532
X170.688Y-73.66
X170.688Y-74.93
X170.688Y-76.2
X170.688Y-77.47
X170.688Y-78.74
X170.688Y-80.01
X170.688Y-81.28
X170.688Y-82.55
X170.688Y-83.82
X170.688Y-91.186
X170.688Y-92.456
X170.688Y-93.726
X170.688Y-94.996
X170.688Y-96.266
X170.688Y-97.536
X170.688Y-98.806
X170.688Y-100.076
X170.688Y-101.346
X170.688Y-109.22
X170.688Y-110.49
X170.688Y-111.76
X170.688Y-113.03
X170.688Y-114.3
X170.688Y-115.57
X170.688Y-116.84
X170.688Y-118.11
X170.688Y-119.38
X171.958Y-55.372
X171.958Y-56.642
X171.958Y-57.912
X171.958Y-59.182
X171.958Y-60.452
X171.958Y-61.722
X171.958Y-62.992
X171.958Y-64.262
X171.958Y-65.532
X171.958Y-73.66
X171.958Y-74.93
X171.958Y-76.2
X171.958Y-77.47
X171.958Y-78.74
X171.958Y-80.01
X171.958Y-81.28
X171.958Y-82.55
X171.958Y-83.82
X171.958Y-91.186
X171.958Y-92.456
X171.958Y-93.726
X171.958Y-94.996
X171.958Y-96.266
X171.958Y-97.536
X171.958Y-98.806
X171.958Y-100.076
X171.958Y-101.346
X171.958Y-109.22
X171.958Y-110.49
X171.958Y-111.76
X171.958Y-113.03
X171.958Y-114.3
X171.958Y-115.57
X171.958Y-116.84
X171.958Y-118.11
X171.958Y-119.38
X172.72Y-137.16
X172.72Y-142.24
X172.72Y-147.32
X173.228Y-55.372
X173.228Y-56.642
X173.228Y-57.912
X173.228Y-59.182
X173.228Y-60.452
X173.228Y-61.722
X173.228Y-62.992
X173.228Y-64.262
X173.228Y-65.532
X173.228Y-73.66
X173.228Y-74.93
X173.228Y-76.2
X173.228Y-77.47
X173.228Y-78.74
X173.228Y-80.01
X173.228Y-81.28
X173.228Y-82.55
X173.228Y-83.82
X173.228Y-91.186
X173.228Y-92.456
X173.228Y-93.726
X173.228Y-94.996
X173.228Y-96.266
X173.228Y-97.536
X173.228Y-98.806
X173.228Y-100.076
X173.228Y-101.346
X173.228Y-109.22
X173.228Y-110.49
X173.228Y-111.76
X173.228Y-113.03
X173.228Y-114.3
X173.228Y-115.57
X173.228Y-116.84
X173.228Y-118.11
X173.228Y-119.38
X174.498Y-55.372
X174.498Y-56.642
X174.498Y-57.912
X174.498Y-59.182
X174.498Y-60.452
X174.498Y-61.722
X174.498Y-62.992
X174.498Y-64.262
X174.498Y-65.532
X174.498Y-73.66
X174.498Y-74.93
X174.498Y-76.2
X174.498Y-77.47
X174.498Y-78.74
X174.498Y-80.01
X174.498Y-81.28
X174.498Y-82.55
X174.498Y-83.82
X174.498Y-91.186
X174.498Y-92.456
X174.498Y-93.726
X174.498Y-94.996
X174.498Y-96.266
X174.498Y-97.536
X174.498Y-98.806
X174.498Y-100.076
X174.498Y-101.346
X174.498Y-109.22
X174.498Y-110.49
X174.498Y-111.76
X174.498Y-113.03
X174.498Y-114.3
X174.498Y-115.57
X174.498Y-116.84
X174.498Y-118.11
X174.498Y-119.38
X175.26Y-139.7
X175.26Y-144.78
X177.8Y-137.16
X177.8Y-142.24
X177.8Y-147.32
X180.34Y-144.78
X182.88Y-142.24
X182.88Y-147.32
X185.42Y-139.7
X185.42Y-144.78
X187.96Y-137.16
X187.96Y-142.24
X187.96Y-147.32
X190.5Y-139.7
X190.5Y-144.78
X193.04Y-142.24
X193.04Y-147.32
X195.58Y-144.78
X198.12Y-132.08
X198.12Y-137.16
X198.12Y-142.24
X198.12Y-147.32
X200.66Y-134.62
X200.66Y-139.7
X203.2Y-132.08
X203.2Y-137.16
X203.2Y-142.24
T2
X110.236Y-61.976
X110.236Y-64.516
X110.236Y-71.146
X110.236Y-73.686
X118.11Y-55.88
X118.11Y-58.42
X123.952Y-55.88
X123.952Y-58.42
X129.794Y-55.88
X129.794Y-58.42
X135.636Y-55.88
X135.636Y-58.42
T3
X119.38Y-137.16
X119.38Y-139.7
X121.92Y-137.16
X121.92Y-139.7
X124.46Y-137.16
X124.46Y-139.7
X127.0Y-137.16
X127.0Y-139.7
X129.54Y-137.16
X129.54Y-139.7
X132.08Y-137.16
X132.08Y-139.7
X134.62Y-137.16
X134.62Y-139.7
X137.16Y-137.16
X137.16Y-139.7
T4
X180.746Y-138.43
X193.96Y-63.1
X193.96Y-76.6
X193.96Y-98.45
X193.96Y-111.95
X194.246Y-138.43
T5
X183.896Y-132.43
X187.96Y-66.25
X187.96Y-73.45
X187.96Y-101.6
X187.96Y-108.8
X191.096Y-132.43
T0
M30
